<svg version="1" xmlns="http://www.w3.org/2000/svg" width="248" height="248" viewBox="0 0 186.000000 186.000000"><path d="M81.5 17.2C43.2 22.1 13.9 55 13.9 93c0 14.1 1.4 21.2 6.7 32.8 18.5 40.7 67.1 57.3 106.5 36.6 41.5-22 54-75.3 26.5-113.7-15.9-22.4-44.8-35-72.1-31.5zM100 32.3c5.3.6 15.4 3.8 20.7 6.8 16.8 9.3 27.8 24.5 31.9 44 .8 3.8.7 14.9-.1 20.8-2.1 15.2-11 30-23.7 39.7-25.4 19.2-60.5 16.5-82.5-6.3-15-15.5-21.1-37.9-15.8-58.1 1.6-6.3 5.2-15.2 6.2-15.2.3 0 2.6 1.5 5.2 3.4 2.5 1.8 7.1 5 10.1 7.1 3 2.1 13.1 9.2 22.3 15.6 9.9 7 16.9 11.3 17.2 10.6.2-.7.3-16.4.2-35-.2-32.7 0-35 2.8-34.1.6.2 3 .5 5.5.7z"/></svg>